<?xml version="1.0" standalone="no"?>
<!DOCTYPE svg PUBLIC "-//W3C//DTD SVG 20010904//EN"
 "http://www.w3.org/TR/2001/REC-SVG-20010904/DTD/svg10.dtd">
<svg version="1.0" xmlns="http://www.w3.org/2000/svg"
 width="1848.000000pt" height="1848.000000pt" viewBox="0 0 1848.000000 1848.000000"
 preserveAspectRatio="xMidYMid meet">
<metadata>
Created by potrace 1.14, written by Peter Selinger 2001-2017
</metadata>
<g transform="translate(0.000000,1848.000000) scale(0.100000,-0.100000)"
fill="#000000" stroke="none">
<path d="M8878 18475 c-2 -1 -69 -6 -150 -9 -81 -4 -158 -9 -170 -11 -13 -2
-61 -6 -108 -10 -47 -4 -103 -8 -125 -10 -53 -5 -154 -16 -185 -20 -14 -2 -65
-9 -115 -15 -49 -6 -101 -14 -115 -16 -14 -2 -43 -7 -65 -10 -158 -22 -587
-105 -700 -135 -22 -6 -51 -13 -65 -15 -14 -3 -33 -7 -42 -10 -9 -3 -25 -7
-35 -9 -10 -2 -45 -11 -78 -20 -33 -9 -67 -18 -75 -20 -8 -2 -64 -17 -125 -35
-60 -17 -123 -35 -140 -40 -48 -13 -212 -66 -310 -100 -49 -17 -97 -33 -105
-35 -25 -6 -399 -148 -435 -165 -11 -5 -72 -31 -135 -58 -63 -27 -149 -64
-190 -82 -85 -38 -572 -281 -580 -290 -3 -3 -21 -13 -40 -24 -107 -57 -137
-74 -295 -169 -72 -43 -139 -83 -150 -90 -11 -7 -34 -22 -52 -34 -17 -13 -36
-23 -42 -23 -6 0 -11 -4 -11 -10 0 -5 -4 -10 -9 -10 -8 0 -232 -147 -287 -189
-12 -9 -32 -23 -44 -31 -37 -24 -412 -306 -442 -332 -14 -13 -52 -43 -82 -67
-31 -24 -56 -48 -56 -52 0 -5 -6 -9 -13 -9 -7 0 -23 -10 -34 -22 -11 -13 -38
-37 -59 -55 -54 -43 -131 -112 -281 -249 -80 -74 -361 -356 -438 -439 -44 -48
-91 -99 -105 -114 -51 -55 -150 -168 -207 -236 -117 -142 -138 -168 -153 -187
-8 -11 -22 -28 -30 -37 -65 -71 -405 -545 -510 -711 -19 -30 -37 -57 -40 -60
-4 -3 -10 -12 -14 -20 -9 -20 -25 -46 -66 -110 -48 -75 -88 -143 -143 -240
-11 -19 -39 -69 -62 -110 -76 -135 -257 -483 -260 -500 0 -3 -18 -41 -39 -85
-65 -136 -190 -432 -254 -600 -107 -283 -234 -662 -249 -744 -2 -14 -6 -28 -9
-32 -23 -38 -165 -646 -208 -895 -20 -113 -46 -276 -51 -314 -3 -25 -8 -56
-10 -70 -2 -14 -7 -50 -10 -80 -3 -30 -8 -62 -10 -70 -2 -8 -7 -53 -10 -100
-4 -47 -8 -87 -10 -90 -2 -3 -6 -48 -10 -100 -4 -52 -8 -111 -10 -130 -27
-277 -26 -1137 0 -1365 2 -16 6 -66 10 -110 3 -44 7 -96 10 -115 2 -19 7 -60
10 -90 7 -74 16 -150 20 -180 2 -14 6 -43 9 -65 3 -22 8 -60 12 -85 5 -42 58
-356 69 -410 2 -14 9 -45 15 -70 5 -25 12 -56 14 -70 3 -21 26 -123 76 -340 5
-19 20 -80 35 -135 14 -55 28 -107 30 -115 2 -8 14 -46 25 -85 12 -38 28 -90
35 -115 21 -72 55 -183 65 -210 5 -14 25 -72 45 -130 78 -223 146 -404 214
-565 97 -231 311 -676 412 -855 41 -74 76 -136 107 -190 14 -25 36 -61 49 -80
12 -19 23 -40 23 -46 0 -6 9 -19 20 -29 11 -10 18 -20 16 -23 -3 -2 15 -33 40
-69 24 -35 44 -66 44 -69 0 -2 23 -38 50 -80 28 -41 50 -79 50 -84 0 -5 4 -10
8 -12 4 -1 43 -55 86 -118 99 -146 147 -214 174 -245 12 -14 22 -27 22 -30 0
-8 112 -150 121 -153 5 -2 9 -9 9 -15 0 -7 13 -25 28 -42 15 -16 43 -50 62
-75 19 -25 45 -56 56 -70 12 -14 59 -70 105 -125 46 -55 91 -107 99 -116 8 -8
47 -50 85 -94 175 -196 462 -483 651 -652 36 -32 78 -69 93 -83 22 -22 100
-89 180 -155 91 -76 112 -93 146 -120 116 -91 161 -126 170 -133 6 -4 37 -28
70 -52 33 -25 65 -49 72 -55 6 -5 28 -21 48 -35 20 -14 55 -39 78 -56 87 -63
298 -204 307 -204 4 0 10 -4 12 -8 5 -14 434 -276 441 -270 2 2 11 -3 21 -11
48 -40 512 -279 748 -385 32 -14 82 -37 111 -51 30 -14 57 -25 60 -25 4 0 30
-10 59 -23 29 -13 73 -32 98 -42 25 -10 59 -23 75 -30 43 -19 257 -99 345
-130 169 -59 575 -186 590 -184 3 0 17 -4 33 -10 15 -6 38 -13 50 -15 12 -3
85 -21 162 -41 134 -34 296 -71 360 -81 17 -3 46 -9 65 -14 19 -5 51 -12 70
-15 19 -4 85 -15 145 -26 61 -11 126 -22 145 -25 19 -2 46 -6 60 -9 14 -2 48
-7 75 -11 28 -3 61 -7 75 -9 51 -8 96 -15 145 -20 90 -10 229 -24 300 -30 39
-4 86 -8 105 -10 268 -26 1118 -26 1370 0 19 2 69 6 110 9 113 9 173 15 305
32 66 8 140 17 165 20 25 3 56 7 70 9 14 3 43 7 65 11 40 5 64 9 120 19 198
36 254 46 275 50 14 3 41 8 60 11 19 3 38 8 41 10 3 2 21 6 40 9 64 11 406 93
454 109 6 1 24 6 40 11 138 35 425 124 660 205 88 31 378 142 435 167 30 13
64 28 75 32 64 26 251 109 315 140 41 19 77 36 80 36 7 1 263 131 325 165 28
15 86 46 130 70 44 24 145 82 225 129 80 47 154 91 165 97 118 65 645 425 653
445 2 5 8 9 13 9 7 0 183 132 246 185 7 5 18 15 25 20 54 43 114 91 118 95 3
3 48 41 100 85 52 44 102 87 111 95 8 8 53 49 99 90 255 228 635 618 803 824
18 21 37 43 43 50 76 81 297 363 429 546 37 52 71 97 74 100 6 5 261 391 288
435 101 167 156 259 178 300 15 28 31 55 36 60 31 40 284 542 368 730 35 77
71 159 81 181 94 209 288 744 350 969 5 17 20 71 35 120 21 73 50 180 80 295
14 55 96 423 101 455 3 22 12 70 20 107 16 81 22 114 59 348 2 14 6 48 10 75
3 28 10 84 15 125 5 41 12 98 15 125 2 28 7 68 9 90 3 22 7 76 11 120 3 44 8
94 10 110 26 200 26 1141 0 1365 -2 19 -6 69 -10 110 -3 41 -7 93 -10 115 -2
22 -7 67 -10 100 -4 33 -8 74 -10 90 -2 17 -7 53 -10 80 -3 28 -7 61 -10 75
-2 14 -7 47 -10 73 -12 97 -67 408 -97 547 -11 52 -22 106 -25 120 -2 14 -11
52 -20 85 -8 33 -17 69 -19 80 -20 113 -134 512 -220 772 -53 163 -184 510
-241 643 -8 19 -19 44 -23 55 -11 25 -60 137 -103 230 -87 193 -294 594 -387
750 -26 44 -56 96 -67 115 -61 108 -224 364 -235 368 -5 2 -8 8 -8 13 0 5 -15
31 -33 57 -18 26 -64 92 -102 147 -63 91 -204 283 -254 345 -11 14 -39 50 -62
80 -57 72 -71 90 -89 109 -8 9 -42 50 -75 91 -33 41 -66 82 -75 90 -8 9 -42
47 -75 85 -257 294 -673 706 -929 917 -24 21 -82 69 -112 95 -12 10 -36 29
-55 43 -18 14 -43 35 -55 48 -12 12 -26 22 -32 22 -6 0 -15 6 -19 13 -4 7 -24
24 -43 37 -19 13 -37 27 -40 30 -8 9 -229 174 -300 224 -133 92 -294 201 -304
205 -6 2 -13 7 -16 11 -9 12 -371 232 -485 295 -27 15 -77 43 -110 61 -67 38
-507 259 -570 287 -22 10 -92 40 -155 68 -63 28 -124 54 -135 59 -118 54 -468
185 -670 251 -224 74 -642 193 -745 212 -14 3 -52 12 -85 20 -33 9 -71 18 -85
21 -14 2 -70 14 -125 26 -104 22 -397 74 -475 85 -25 3 -57 8 -71 11 -15 2
-47 6 -70 9 -24 3 -55 8 -69 10 -14 2 -50 6 -80 10 -30 3 -71 7 -90 10 -48 6
-191 19 -335 30 -38 3 -99 8 -135 11 -69 6 -896 14 -902 9z"/>
</g>
</svg>
