<?xml version="1.0" encoding="UTF-8" standalone="no"?>
<svg
   xmlns:dc="http://purl.org/dc/elements/1.1/"
   xmlns:cc="http://creativecommons.org/ns#"
   xmlns:rdf="http://www.w3.org/1999/02/22-rdf-syntax-ns#"
   xmlns:svg="http://www.w3.org/2000/svg"
   xmlns="http://www.w3.org/2000/svg"
   xmlns:sodipodi="http://sodipodi.sourceforge.net/DTD/sodipodi-0.dtd"
   xmlns:inkscape="http://www.inkscape.org/namespaces/inkscape"
   width="14.066185mm"
   height="45.741936mm"
   viewBox="0 0 14.066185 45.741936"
   version="1.1"
   id="svg982"
   inkscape:version="1.0.2 (e86c870879, 2021-01-15)"
   sodipodi:docname="j-logo.svg">
  <defs
     id="defs976" />
  <sodipodi:namedview
     id="base"
     pagecolor="#ffffff"
     bordercolor="#666666"
     borderopacity="1.0"
     inkscape:pageopacity="0.0"
     inkscape:pageshadow="2"
     inkscape:zoom="2.8"
     inkscape:cx="-40.104021"
     inkscape:cy="114.57653"
     inkscape:document-units="mm"
     inkscape:current-layer="layer1"
     inkscape:document-rotation="0"
     showgrid="false"
     inkscape:window-width="1848"
     inkscape:window-height="1016"
     inkscape:window-x="72"
     inkscape:window-y="446"
     inkscape:window-maximized="1" />
  <metadata
     id="metadata979">
    <rdf:RDF>
      <cc:Work
         rdf:about="">
        <dc:format>image/svg+xml</dc:format>
        <dc:type
           rdf:resource="http://purl.org/dc/dcmitype/StillImage" />
        <dc:title></dc:title>
      </cc:Work>
    </rdf:RDF>
  </metadata>
  <g
     inkscape:groupmode="layer"
     id="layer3"
     inkscape:label="Layer 2"
     transform="translate(-178.1752,-27.777847)" />
  <g
     inkscape:label="Layer 1"
     inkscape:groupmode="layer"
     id="layer1"
     transform="translate(-178.1752,-27.777847)">
    <path
       id="path1019"
       style="color:#000000;font-style:normal;font-variant:normal;font-weight:normal;font-stretch:normal;font-size:medium;line-height:normal;font-family:sans-serif;font-variant-ligatures:normal;font-variant-position:normal;font-variant-caps:normal;font-variant-numeric:normal;font-variant-alternates:normal;font-variant-east-asian:normal;font-feature-settings:normal;font-variation-settings:normal;text-indent:0;text-align:start;text-decoration:none;text-decoration-line:none;text-decoration-style:solid;text-decoration-color:#000000;letter-spacing:normal;word-spacing:normal;text-transform:none;writing-mode:lr-tb;direction:ltr;text-orientation:mixed;dominant-baseline:auto;baseline-shift:baseline;text-anchor:start;white-space:normal;shape-padding:0;shape-margin:0;inline-size:0;clip-rule:nonzero;display:inline;overflow:visible;visibility:visible;opacity:1;isolation:auto;mix-blend-mode:normal;color-interpolation:sRGB;color-interpolation-filters:linearRGB;solid-color:#000000;solid-opacity:1;vector-effect:none;fill:#000000;fill-opacity:1;fill-rule:nonzero;stroke:none;stroke-linecap:butt;stroke-linejoin:miter;stroke-miterlimit:4;stroke-dasharray:none;stroke-dashoffset:0;stroke-opacity:1;color-rendering:auto;image-rendering:auto;shape-rendering:auto;text-rendering:auto;enable-background:accumulate;stop-color:#000000;stop-opacity:1"
       d="m 717.65039,104.99219 c -1.94543,0.0528 -3.42912,0.49387 -3.46289,0.5039 -0.17189,0.004 -1.51214,0.0469 -2.88672,1.02344 -1.46459,1.04053 -2.82852,3.15048 -2.61328,7.05078 0.21863,3.96144 2.57678,6.10599 4.81836,7.16407 2.24158,1.05805 4.41601,1.11914 4.41602,1.11914 h 0.0371 l 0.0371,-0.004 c 0,0 2.49139,-0.28247 4.79883,-1.70899 2.30745,-1.42649 4.44758,-4.12894 3.5957,-8.61132 -0.48057,-2.52872 -1.68531,-4.17579 -3.1621,-5.16016 -1.4768,-0.98437 -3.19234,-1.3176 -4.71875,-1.37305 -0.29388,-0.0107 -0.58146,-0.0113 -0.85938,-0.004 z m 0.12891,35.79101 c -1.24999,0.008 -2.57496,0.52101 -3.875,1.70313 -1.30004,1.18212 -2.59512,3.02629 -3.87891,5.75586 l -0.0469,0.10156 0.19531,86.57422 c 0,0 -0.3526,6.42693 -4.48438,13.06445 -4.13178,6.63753 -11.98907,13.46989 -27.22265,14.25781 l -0.13477,0.008 -0.11133,0.0723 c 0,0 -2.73224,1.74257 -4.08398,4.57813 -0.67587,1.41778 -0.99888,3.1415 -0.41406,4.99804 0.58481,1.85655 2.05275,3.81127 4.83203,5.78125 l 0.10156,0.0723 0.125,0.0156 c 0,0 7.60505,0.95159 17.11914,-2.89648 9.51409,-3.84807 20.97067,-12.51203 28.75391,-31.58594 l 0.0351,-0.0879 1.05664,-95.66211 -0.0547,-0.10742 c 0,0 -0.81784,-1.64542 -2.19141,-3.29101 -1.37357,-1.6456 -3.33431,-3.36722 -5.7207,-3.35157 z"
       transform="scale(0.26458333)" />
  </g>
</svg>
