<?xml version="1.0" encoding="UTF-8" standalone="no"?>
<svg
   xmlns:dc="http://purl.org/dc/elements/1.1/"
   xmlns:cc="http://creativecommons.org/ns#"
   xmlns:rdf="http://www.w3.org/1999/02/22-rdf-syntax-ns#"
   xmlns:svg="http://www.w3.org/2000/svg"
   xmlns="http://www.w3.org/2000/svg"
   xmlns:sodipodi="http://sodipodi.sourceforge.net/DTD/sodipodi-0.dtd"
   xmlns:inkscape="http://www.inkscape.org/namespaces/inkscape"
   width="62.283012mm"
   height="146.90781mm"
   viewBox="0 0 62.283012 146.90781"
   version="1.1"
   id="svg78"
   inkscape:version="1.0.2 (e86c870879, 2021-01-15)"
   sodipodi:docname="j-logo-2.svg">
  <defs
     id="defs72" />
  <sodipodi:namedview
     id="base"
     pagecolor="#ffffff"
     bordercolor="#666666"
     borderopacity="1.0"
     inkscape:pageopacity="0.0"
     inkscape:pageshadow="2"
     inkscape:zoom="0.35"
     inkscape:cx="138.28291"
     inkscape:cy="227.36989"
     inkscape:document-units="mm"
     inkscape:current-layer="layer1"
     inkscape:document-rotation="0"
     showgrid="false"
     inkscape:window-width="1848"
     inkscape:window-height="1016"
     inkscape:window-x="72"
     inkscape:window-y="446"
     inkscape:window-maximized="1" />
  <metadata
     id="metadata75">
    <rdf:RDF>
      <cc:Work
         rdf:about="">
        <dc:format>image/svg+xml</dc:format>
        <dc:type
           rdf:resource="http://purl.org/dc/dcmitype/StillImage" />
        <dc:title></dc:title>
      </cc:Work>
    </rdf:RDF>
  </metadata>
  <g
     inkscape:label="Layer 1"
     inkscape:groupmode="layer"
     id="layer1"
     transform="translate(-69.24598,-88.008382)">
    <path
       id="path30"
       style="fill:#000000;stroke:#000000;stroke-width:3.57569"
       d="m 129.6983,101.95315 c 1e-5,6.71409 -5.44283,12.15692 -12.15692,12.15692 -6.71407,0 -12.15691,-5.44283 -12.1569,-12.15692 -1e-5,-6.714094 5.44283,-12.156923 12.1569,-12.156923 6.71409,0 12.15693,5.442829 12.15692,12.156923 z m -54.001154,19.78134 v 0.43978 -0.43978 l -0.190347,21.44393 31.689811,0.0592 -0.0788,59.48732 c -1.17978,4.4594 -3.2489,6.60974 -5.00815,7.67304 -1.76384,1.06606 -3.183415,1.04362 -3.183415,1.04362 h -0.0067 l -27.850007,0.0917 -0.03294,21.56851 28.106001,-0.41353 -0.0067,-0.50541 0.03292,0.50541 c 14.124211,-0.90414 21.770731,-8.27293 25.815251,-15.39201 4.04452,-7.11908 4.54212,-14.01361 4.54212,-14.01361 l 0.007,-0.0202 0.20349,-81.46279 z"
       sodipodi:nodetypes="sssssccccccscccccccscccc" />
  </g>
</svg>
